<svg version="1.0" xmlns="http://www.w3.org/2000/svg"
 width="512.000000pt" height="512.000000pt" viewBox="0 0 512.000000 512.000000"
 preserveAspectRatio="xMidYMid meet">

<g transform="translate(0.000000,512.000000) scale(0.100000,-0.100000)"
fill="#000000" stroke="none">
<path d="M0 2475 l0 -2135 2560 0 2560 0 0 2135 0 2135 -2560 0 -2560 0 0
-2135z m4780 0 l0 -1795 -2220 0 -2220 0 0 1795 0 1795 2220 0 2220 0 0 -1795z"/>
<path d="M680 3755 l0 -165 170 0 170 0 0 165 0 165 -170 0 -170 0 0 -165z"/>
<path d="M1370 3755 l0 -165 170 0 170 0 0 165 0 165 -170 0 -170 0 0 -165z"/>
<path d="M2050 3755 l0 -165 170 0 170 0 0 165 0 165 -170 0 -170 0 0 -165z"/>
<path d="M2405 2198 c-192 -574 -350 -1048 -352 -1054 -5 -15 305 -120 317
-108 9 11 703 2094 699 2098 -2 2 -69 25 -149 51 -80 26 -150 50 -156 52 -8 3
-138 -374 -359 -1039z"/>
<path d="M1422 2508 c-214 -205 -391 -376 -391 -379 -1 -5 309 -305 721 -698
l68 -64 112 118 c62 65 114 121 116 124 1 4 -117 121 -264 261 l-266 254 114
111 c62 61 182 177 267 257 l154 147 -113 120 c-62 67 -116 121 -120 121 -4 0
-183 -168 -398 -372z"/>
<path d="M3181 2760 l-113 -121 148 -141 c82 -78 202 -194 267 -258 l119 -116
-266 -254 c-146 -140 -265 -257 -264 -261 2 -4 54 -59 116 -124 l113 -117 62
59 c312 296 727 696 726 702 -1 8 -773 744 -785 748 -5 2 -61 -51 -123 -117z"/>
</g>
</svg>